<svg width="36" height="36" viewBox="0 0 36 36" xmlns="http://www.w3.org/2000/svg"><title>icon-search</title><g id="Page-1" fill="none" fill-rule="evenodd"><g id="Group" fill-rule="nonzero" fill="#FFF"><path d="M23.571 15.857c0-2.203-.783-4.087-2.348-5.652-1.565-1.565-3.45-2.348-5.652-2.348-2.203 0-4.087.783-5.652 2.348-1.565 1.565-2.348 3.45-2.348 5.652 0 2.203.783 4.087 2.348 5.652 1.565 1.565 3.45 2.348 5.652 2.348 2.203 0 4.087-.783 5.652-2.348 1.565-1.565 2.348-3.45 2.348-5.652zm9.143 14.857c0 .62-.226 1.155-.679 1.607-.453.452-.988.678-1.607.679-.643 0-1.178-.226-1.607-.679l-6.125-6.107c-2.13 1.476-4.506 2.214-7.125 2.214-1.703 0-3.33-.33-4.884-.991-1.553-.66-2.893-1.554-4.018-2.679-1.125-1.125-2.018-2.465-2.679-4.018a12.352 12.352 0 0 1-.991-4.884c0-1.703.33-3.33.991-4.884.66-1.553 1.554-2.893 2.679-4.018 1.125-1.125 2.465-2.018 4.018-2.679a12.352 12.352 0 0 1 4.884-.991c1.703 0 3.33.33 4.884.991 1.553.66 2.893 1.554 4.018 2.679 1.125 1.125 2.018 2.465 2.679 4.018.66 1.553.991 3.181.991 4.884 0 2.62-.738 4.994-2.214 7.125l6.125 6.125c.44.44.661.976.661 1.607l-.001.001z" id="Shape"/></g></g></svg>